<svg width="14" height="15" viewBox="0 0 14 15" fill="none" xmlns="http://www.w3.org/2000/svg">
<path fill-rule="evenodd" clip-rule="evenodd" d="M11.5366 3.08415C11.6807 3.02347 11.8385 3.00255 11.9935 3.02355C12.1485 3.04455 12.295 3.1067 12.4178 3.20355C12.5406 3.30039 12.6352 3.42838 12.6918 3.57419C12.7484 3.72001 12.7648 3.87832 12.7394 4.03265L11.4164 12.0576C11.2881 12.8316 10.4388 13.2756 9.72884 12.89C9.135 12.5674 8.253 12.0704 7.45967 11.5518C7.063 11.2922 5.84792 10.461 5.99725 9.86948C6.12559 9.36373 8.16725 7.46323 9.33392 6.33331C9.79183 5.8894 9.583 5.63331 9.04225 6.04165C7.69884 7.05548 5.54342 8.59723 4.83059 9.03123C4.20175 9.4139 3.87392 9.47923 3.48192 9.4139C2.76675 9.2949 2.1035 9.11056 1.56217 8.88598C0.830668 8.58265 0.866251 7.57698 1.56158 7.28415L11.5366 3.08415Z" fill="#259CD8"/>
</svg>
