<svg width="14" height="15" viewBox="0 0 14 15" fill="none" xmlns="http://www.w3.org/2000/svg">
<path d="M8.2963 1.08325H5.7037C3.20833 1.08325 1.16667 3.10366 1.16667 5.57305V7.49725C1.16667 9.22902 2.1875 10.8165 3.75926 11.5541V13.7028C3.75926 13.8952 4.00232 13.9914 4.13195 13.8471L6.01158 11.987H8.2963C10.7917 11.987 12.8333 9.96663 12.8333 7.49725V5.57305C12.8333 3.10366 10.7917 1.08325 8.2963 1.08325ZM9.99769 9.50162L9.33333 10.143C8.63658 10.8165 6.83796 10.0468 5.25 8.44331C3.66204 6.83981 2.96528 5.04389 3.62963 4.37042L4.27778 3.72902C4.52083 3.4885 4.92593 3.50453 5.20139 3.74506L6.1412 4.70716C6.48148 5.04389 6.33565 5.62115 5.89815 5.74943C5.59028 5.84564 5.37963 6.18238 5.47685 6.48704C5.63889 7.19258 6.5463 8.09054 7.22685 8.26693C7.53472 8.33107 7.875 8.17072 7.98843 7.86605C8.13426 7.43311 8.71759 7.30483 9.04167 7.64156L9.98148 8.60366C10.2407 8.82815 10.2407 9.22902 9.99769 9.50162ZM7.58333 4.1299C7.51852 4.1299 7.4537 4.1299 7.38889 4.14593C7.27546 4.16197 7.16204 4.06576 7.14583 3.95351C7.12963 3.84127 7.22685 3.72902 7.34028 3.71299C7.4213 3.69695 7.50232 3.69695 7.58333 3.69695C8.7662 3.69695 9.73843 4.65905 9.73843 5.82961C9.73843 5.90978 9.73843 5.98996 9.72222 6.07013C9.70602 6.18238 9.59259 6.27859 9.47917 6.26255C9.36574 6.24652 9.26852 6.13427 9.28472 6.02203C9.28472 5.95789 9.30093 5.89375 9.30093 5.82961C9.31713 4.89958 8.53935 4.1299 7.58333 4.1299ZM8.87963 5.84564C8.87963 5.95789 8.78241 6.0541 8.66898 6.0541C8.55556 6.0541 8.45833 5.95789 8.45833 5.84564C8.45833 5.38063 8.06945 4.99579 7.59954 4.99579C7.48611 4.99579 7.38889 4.89958 7.38889 4.78733C7.38889 4.67509 7.48611 4.57888 7.59954 4.57888C8.2963 4.56284 8.87963 5.1401 8.87963 5.84564ZM10.5324 6.53515C10.5 6.64739 10.3866 6.72757 10.2569 6.6955C10.1435 6.66343 10.0787 6.55118 10.1111 6.43894C10.1597 6.24652 10.1759 6.0541 10.1759 5.84564C10.1759 4.43456 9.00926 3.28005 7.58333 3.28005C7.51852 3.28005 7.4537 3.28005 7.38889 3.28005C7.27546 3.28005 7.16204 3.19987 7.16204 3.08763C7.16204 2.97538 7.24306 2.86314 7.35648 2.86314C7.4375 2.86314 7.51852 2.8471 7.58333 2.8471C9.25232 2.8471 10.6134 4.19404 10.6134 5.84564C10.6134 6.07013 10.581 6.31066 10.5324 6.53515Z" fill="#6359A2"/>
</svg>
