<svg width="14" height="15" viewBox="0 0 14 15" fill="none" xmlns="http://www.w3.org/2000/svg">
<path d="M1.169 13.3334L1.95767 10.4354C1.438 9.54458 1.16497 8.53141 1.16667 7.50008C1.16667 4.27833 3.77825 1.66675 7 1.66675C10.2217 1.66675 12.8333 4.27833 12.8333 7.50008C12.8333 10.7218 10.2217 13.3334 7 13.3334C5.96912 13.3351 4.95638 13.0623 4.06583 12.543L1.169 13.3334ZM4.89475 4.76308C4.81942 4.76776 4.74581 4.7876 4.67833 4.82141C4.61505 4.85725 4.55729 4.90205 4.50683 4.95441C4.43683 5.02033 4.39717 5.0775 4.35458 5.13291C4.13899 5.4135 4.02302 5.75791 4.025 6.11175C4.02617 6.39758 4.10083 6.67583 4.2175 6.936C4.45608 7.46216 4.84867 8.01925 5.36725 8.5355C5.49208 8.65975 5.614 8.78458 5.74525 8.90066C6.38889 9.46735 7.1559 9.87602 7.98525 10.0942L8.31717 10.1449C8.42508 10.1507 8.533 10.1426 8.6415 10.1373C8.81139 10.1286 8.97727 10.0826 9.12742 10.0026C9.20381 9.96323 9.27836 9.92041 9.35083 9.87425C9.35083 9.87425 9.37592 9.85791 9.42375 9.82175C9.5025 9.76341 9.55092 9.722 9.61625 9.65375C9.66467 9.60358 9.70667 9.54466 9.73875 9.47758C9.78425 9.3825 9.82975 9.20108 9.84842 9.05C9.86242 8.9345 9.85833 8.8715 9.85658 8.83241C9.85425 8.77 9.80233 8.70525 9.74575 8.67783L9.40625 8.52558C9.40625 8.52558 8.89875 8.3045 8.589 8.16333C8.55634 8.1491 8.52134 8.14099 8.48575 8.13941C8.44584 8.13532 8.40551 8.13981 8.36748 8.15258C8.32945 8.16536 8.29459 8.18613 8.26525 8.2135V8.21233C8.26233 8.21233 8.22325 8.24558 7.8015 8.75658C7.77729 8.78911 7.74395 8.81369 7.70572 8.8272C7.66749 8.8407 7.6261 8.84252 7.58683 8.83241C7.54882 8.82225 7.51159 8.80939 7.47542 8.79391C7.40308 8.76358 7.378 8.75191 7.32842 8.73033L7.3255 8.72916C6.99178 8.58346 6.6828 8.38666 6.40967 8.14583C6.33617 8.08166 6.26792 8.01166 6.19792 7.944C5.96842 7.72422 5.76842 7.47559 5.60292 7.20433L5.5685 7.14891C5.54378 7.11168 5.52379 7.07151 5.509 7.02933C5.48683 6.94358 5.54458 6.87475 5.54458 6.87475C5.54458 6.87475 5.68633 6.71958 5.75225 6.63558C5.80713 6.56577 5.85834 6.49314 5.90567 6.418C5.9745 6.30716 5.99608 6.19341 5.95992 6.10533C5.79658 5.70633 5.62742 5.30908 5.45358 4.91475C5.41917 4.83658 5.31708 4.78058 5.22433 4.7695C5.19283 4.766 5.16133 4.7625 5.12983 4.76016C5.05149 4.75627 4.97299 4.75764 4.89475 4.76308Z" fill="#1AD03F"/>
</svg>
